<svg width="222" height="38" viewBox="0 0 222 38" fill="none" xmlns="http://www.w3.org/2000/svg">
<path d="M10.0078 32.8281C7.14844 32.8281 5.19531 32.8047 4.14844 32.7578L3.46875 34.375C3.26562 34.8281 3.07812 35.3047 2.90625 35.8047C2.54688 36.7734 2.04688 37.2578 1.40625 37.2578C1.10938 37.2578 0.867188 37.1641 0.679688 36.9766C0.492188 36.7891 0.398438 36.5938 0.398438 36.3906C0.398438 36.0469 0.546875 35.6641 0.84375 35.2422C1.3125 34.5859 1.77344 33.7266 2.22656 32.6641C0.882812 32.5391 0.210938 32.1484 0.210938 31.4922C0.210938 30.8359 0.59375 30.5078 1.35938 30.5078C1.82812 30.5078 2.375 30.5859 3 30.7422L14.6953 2.33594L30.7266 37H18.5156L16.5703 32.8281H10.0078ZM4.89844 30.9297C6.39844 31.0547 7.74219 31.1172 8.92969 31.1172H15.7969L9.9375 18.4844L4.89844 30.9297ZM44.0391 37.4453C38.5547 37.4453 35.8125 34.7656 35.8125 29.4062V11.9688H45.8438V34.9141C46 34.9922 46.1953 35.0312 46.4297 35.0312H47.2031C48.4531 35.0312 49.9375 34.1875 51.6562 32.5C52.1719 31.9844 52.6562 31.4219 53.1094 30.8125V11.9688H63.1875V37H53.1094V33.3906C50.5625 36.0938 47.5391 37.4453 44.0391 37.4453ZM80.2266 35.5C80.9609 35.6406 81.6953 35.7109 82.4297 35.7109C83.1797 35.7109 83.8984 35.6562 84.5859 35.5469C85.2891 35.4219 85.9531 35.25 86.5781 35.0312C87.9062 34.5625 88.9766 33.9688 89.7891 33.25C90.3672 32.75 90.7891 32.5 91.0547 32.5C91.6484 32.5 91.9453 32.7656 91.9453 33.2969C91.9453 33.8281 91.4609 34.4609 90.4922 35.1953C88.2422 36.6953 85.5391 37.4453 82.3828 37.4453C78.2734 37.4453 74.9531 36.2109 72.4219 33.7422C69.9375 31.3047 68.6953 28.1406 68.6953 24.25C68.6953 20.5625 70.0156 17.5156 72.6562 15.1094C75.2812 12.7344 78.5781 11.5469 82.5469 11.5469C84.8125 11.5469 86.9922 12.0156 89.0859 12.9531C90.6797 13.6406 91.4766 14.3516 91.4766 15.0859C91.4766 15.3984 91.3828 15.6406 91.1953 15.8125C91.0234 15.9688 90.8281 16.0469 90.6094 16.0469C90.2812 16.0469 89.8594 15.8672 89.3438 15.5078C88.3281 14.5391 86.8203 13.8594 84.8203 13.4688C84.1016 13.3281 83.3125 13.2578 82.4531 13.2578C81.5938 13.2578 80.8516 13.3203 80.2266 13.4453V35.5ZM106.922 37.4453C100.797 37.4453 97.7344 34.6484 97.7344 29.0547L97.7109 13.6797L95.0156 13.7969C94.1719 13.7969 93.75 13.4766 93.75 12.8359C93.75 12.1953 94.2031 11.875 95.1094 11.875L97.3594 11.9688H97.7109V8.33594L107.766 3.83594V11.9688H110.906L113.133 11.875C114.055 11.875 114.516 12.2031 114.516 12.8594C114.516 13.1562 114.383 13.3906 114.117 13.5625C113.867 13.7188 113.578 13.7969 113.25 13.7969L110.344 13.6797H107.766V35.7109C109.594 35.6797 111.117 35.1562 112.336 34.1406C112.914 33.7031 113.32 33.1406 113.555 32.4531C113.805 31.7656 114.023 31.3281 114.211 31.1406C114.414 30.9375 114.648 30.8359 114.914 30.8359C115.18 30.8359 115.406 30.9453 115.594 31.1641C115.781 31.3672 115.875 31.6172 115.875 31.9141C115.875 32.1953 115.797 32.5156 115.641 32.875C115.484 33.2188 115.25 33.5859 114.938 33.9766C114.234 34.8516 113.422 35.5469 112.5 36.0625C110.828 36.9844 108.969 37.4453 106.922 37.4453ZM124.805 7.86719C123.195 7.86719 121.938 7.50781 121.031 6.78906C120.125 6.07031 119.672 5.125 119.672 3.95312C119.672 2.96875 120.172 2.125 121.172 1.42188C122.234 0.671875 123.359 0.296875 124.547 0.296875C125.734 0.296875 126.648 0.414062 127.289 0.648438C127.945 0.882812 128.5 1.1875 128.953 1.5625C129.859 2.32813 130.312 3.21875 130.312 4.23438C130.312 5.25 129.797 6.10938 128.766 6.8125C127.734 7.51562 126.414 7.86719 124.805 7.86719ZM119.883 11.9688H129.961V37H119.883V11.9688ZM135.492 24.3438C135.492 22.4688 135.828 20.7656 136.5 19.2344C137.188 17.6875 138.125 16.3438 139.312 15.2031C141.875 12.7656 145.094 11.5469 148.969 11.5469C152.922 11.5469 156.141 12.8125 158.625 15.3438C161 17.7344 162.188 20.7578 162.188 24.4141C162.188 28.0859 160.969 31.1562 158.531 33.625C156.016 36.1719 152.797 37.4453 148.875 37.4453C145.047 37.4453 141.875 36.2344 139.359 33.8125C136.781 31.3125 135.492 28.1562 135.492 24.3438ZM148.219 35.6875C148.344 35.7031 148.469 35.7109 148.594 35.7109H148.922C152.078 35.7109 154.727 34.7344 156.867 32.7812C159.148 30.6719 160.289 27.9062 160.289 24.4844C160.289 21.1406 159.219 18.4297 157.078 16.3516C154.969 14.2891 152.242 13.2578 148.898 13.2578H148.547C148.438 13.2578 148.328 13.2656 148.219 13.2812V35.6875ZM185.555 14.5234C185.164 14.2734 184.742 14.1484 184.289 14.1484C183.836 14.1484 183.367 14.2578 182.883 14.4766C182.398 14.6797 181.891 14.9688 181.359 15.3438C180.25 16.1406 179.227 17.2031 178.289 18.5312V37H168.211V11.9688H178.289V15.9766C180.961 13.0234 183.984 11.5469 187.359 11.5469C192.875 11.5469 195.633 14.2188 195.633 19.5625V37H185.555V14.5234ZM201.492 33.8594C201.492 33.625 201.57 33.4141 201.727 33.2266C201.898 33.0234 202.117 32.9219 202.383 32.9219C202.648 32.9219 202.867 33 203.039 33.1562C203.039 33.1562 203.234 33.3359 203.625 33.6953C205.25 35.1172 207.523 35.8281 210.445 35.8281C212.414 35.8281 213.68 35.4219 214.242 34.6094C214.398 34.3906 214.477 34.1719 214.477 33.9531C214.477 33.7188 214.43 33.5 214.336 33.2969C214.258 33.0781 214.078 32.8203 213.797 32.5234C213.516 32.2109 213.117 31.8438 212.602 31.4219L210.539 29.7578C207.133 27.1016 204.797 24.9453 203.531 23.2891C202.375 21.7734 201.797 20.2266 201.797 18.6484C201.797 16.6641 202.711 15 204.539 13.6562C206.43 12.25 208.875 11.5469 211.875 11.5469C213.984 11.5469 215.648 11.7891 216.867 12.2734C218.086 12.7578 218.945 13.2031 219.445 13.6094C219.945 14 220.195 14.3594 220.195 14.6875C220.195 15.3594 219.93 15.6953 219.398 15.6953C219.148 15.6953 218.914 15.6094 218.695 15.4375C218.492 15.25 218.078 14.9453 217.453 14.5234C216.828 14.0859 216 13.7422 214.969 13.4922C213.938 13.2422 212.977 13.1172 212.086 13.1172C211.195 13.1172 210.562 13.2578 210.188 13.5391C209.828 13.8203 209.648 14.1016 209.648 14.3828C209.648 14.6484 209.703 14.9062 209.812 15.1562C209.922 15.3906 210.125 15.6719 210.422 16C211.109 16.8125 212.211 17.7734 213.727 18.8828C215.242 19.9922 216.523 21.0078 217.57 21.9297C218.617 22.8516 219.438 23.7031 220.031 24.4844C221.109 25.8906 221.648 27.3125 221.648 28.75C221.648 30.1875 221.383 31.4219 220.852 32.4531C220.32 33.4688 219.562 34.3438 218.578 35.0781C216.5 36.6562 213.727 37.4453 210.258 37.4453C207.477 37.4453 205.156 36.9141 203.297 35.8516C202.094 35.1797 201.492 34.5156 201.492 33.8594Z" fill="#705D00"/>
</svg>
