<svg width="32" height="39" viewBox="0 0 32 39" fill="none" xmlns="http://www.w3.org/2000/svg">
<circle cx="16" cy="19" r="16" fill="#705D00"/>
<path d="M12.6719 26.2188C10.7656 26.2188 9.46354 26.2031 8.76562 26.1719L8.3125 27.25C8.17708 27.5521 8.05208 27.8698 7.9375 28.2031C7.69792 28.849 7.36458 29.1719 6.9375 29.1719C6.73958 29.1719 6.57812 29.1094 6.45312 28.9844C6.32812 28.8594 6.26562 28.7292 6.26562 28.5938C6.26562 28.3646 6.36458 28.1094 6.5625 27.8281C6.875 27.3906 7.18229 26.8177 7.48438 26.1094C6.58854 26.026 6.14062 25.7656 6.14062 25.3281C6.14062 24.8906 6.39583 24.6719 6.90625 24.6719C7.21875 24.6719 7.58333 24.724 8 24.8281L15.7969 5.89062L26.4844 29H18.3438L17.0469 26.2188H12.6719ZM9.26562 24.9531C10.2656 25.0365 11.1615 25.0781 11.9531 25.0781H16.5312L12.625 16.6562L9.26562 24.9531Z" fill="#F9F7F0"/>
</svg>
